# xmcd
#
# Track frame offsets:
#	150
#	9788
#	23419
#	36268
#	48649
#	61661
#	72832
#	93979
#	111451
#	122398
#	139869
#	156166
#	178641
#	187342
#	200236
#	210311
#	222856
#	234621
#	247241
#	274492
#	291934
#
# Disc length: 4431
#
# Revision: 1
# Processed by: cddbd v1.5.1PL0 Copyright (c) Steve Scherf et al.
# Submitted via: FreeRIP 2.12 
# Normalized: r0:TRMNUM
#
DISCID=3e114d15
DTITLE=Peter Green - Peter Green
DYEAR=1900
DGENRE=Blues
TTITLE0=The Same Way
TTITLE1=Another Kind of Love
TTITLE2=The Stumble
TTITLE3=Dust My Blues
TTITLE4=The Super Natural
TTITLE5=Alabama Blues
TTITLE6=Out Of Reach
TTITLE7=Groovy
TTITLE8=Please Don't Tell
TTITLE9=Your Funeral and My Trial
TTITLE10=Watch Out for Me Women
TTITLE11=Sandy Mary
TTITLE12=Preachin' Blues
TTITLE13=Long Grey Mare
TTITLE14=Stop Messing Around
TTITLE15=Albatross
TTITLE16=Looking for Somebody
TTITLE17=Man of the World
TTITLE18=Black Magic Woman
TTITLE19=Show Biz Blues
TTITLE20=Oh Well
EXTD=
EXTT0=
EXTT1=
EXTT2=
EXTT3=
EXTT4=
EXTT5=
EXTT6=
EXTT7=
EXTT8=
EXTT9=
EXTT10=
EXTT11=
EXTT12=
EXTT13=
EXTT14=
EXTT15=
EXTT16=
EXTT17=
EXTT18=
EXTT19=
EXTT20=
PLAYORDER=
